<?xml version="1.0" encoding="UTF-8"?>
<svg width="26px" height="26px" viewBox="0 0 26 26" version="1.1" xmlns="http://www.w3.org/2000/svg" xmlns:xlink="http://www.w3.org/1999/xlink">
    <!-- Generator: Sketch 44.1 (41455) - http://www.bohemiancoding.com/sketch -->
    <title>Vkontakte</title>
    <desc>Created with Sketch.</desc>
    <defs></defs>
    <g id="Page-1" stroke="none" stroke-width="1" fill="none" fill-rule="evenodd">
        <path d="M20,1 L6,1 C3.239,1 1,3.239 1,6 L1,20 C1,22.761 3.239,25 6,25 L20,25 C22.762,25 25,22.761 25,20 L25,6 C25,3.239 22.762,1 20,1 Z M20.25,17.996 L18.116,17.996 C16.911,17.996 16.707,17.309 15.715,16.317 C14.818,15.42 14.32,16.108 14.341,17.385 C14.347,17.724 14.18,17.996 13.775,17.996 C12.511,17.996 10.695,18.174 8.857,16.19 C6.974,14.157 5,10.079 5,9.677 C5,9.44 5.196,9.333 5.524,9.333 L7.694,9.333 C8.268,9.333 8.317,9.617 8.477,9.982 C9.144,11.503 10.742,14.556 11.167,12.852 C11.411,11.874 11.511,9.607 10.464,9.412 C9.87,9.302 10.916,8.666 12.432,8.666 C12.809,8.666 13.218,8.707 13.637,8.803 C14.406,8.982 14.408,9.326 14.398,9.829 C14.359,11.732 14.129,13.013 14.631,13.336 C15.11,13.646 16.37,11.619 17.034,10.055 C17.217,9.622 17.253,9.333 17.768,9.333 L20.422,9.333 C21.812,9.333 20.24,11.33 19.039,12.89 C18.071,14.145 18.123,14.17 19.248,15.214 C20.051,15.958 20.998,16.974 20.998,17.55 C21,17.822 20.788,17.996 20.25,17.996 L20.25,17.996 Z" id="Shape" stroke="#FFFFFF" fill-rule="nonzero"></path>
    </g>
</svg>