<?xml version="1.0" encoding="UTF-8"?>
<svg width="20px" height="20px" viewBox="0 0 20 20" version="1.1" xmlns="http://www.w3.org/2000/svg" xmlns:xlink="http://www.w3.org/1999/xlink">
    <!-- Generator: Sketch 44.1 (41455) - http://www.bohemiancoding.com/sketch -->
    <title>Phone</title>
    <desc>Created with Sketch.</desc>
    <defs></defs>
    <g id="Page-1" stroke="none" stroke-width="1" fill="none" fill-rule="evenodd">
        <g id="phone" fill-rule="nonzero" fill="#FFFFFF">
            <path d="M18.3017329,13.4029851 C18.3975535,13.4818763 18.4913354,13.5628998 18.5830785,13.641791 C19.1946993,14.1705757 19.4413863,14.4648188 19.4658512,14.4968017 L19.4658512,14.4968017 L19.4658512,14.4968017 L19.4658512,14.4968017 C19.4658512,14.4968017 19.5188583,14.5607676 19.5718654,14.6268657 C19.6004077,14.6609808 19.6269113,14.6950959 19.6472987,14.7206823 C19.6595311,14.7377399 19.6717635,14.750533 19.6778797,14.761194 C19.6941896,14.782516 19.7084608,14.8059701 19.7206932,14.8272921 L19.8511723,15.0255864 L19.8511723,15.0447761 C20.108053,15.5820896 19.9286442,16.2899787 19.7675841,16.6481876 C19.4841998,17.2793177 18.9541284,17.9211087 18.5504587,18.3091684 C17.7390418,19.0916844 16.6279307,19.9914712 15.2375127,19.9914712 C15.0927625,19.9914712 14.9439348,19.9808102 14.7971458,19.9616205 C13.783894,19.8294243 12.2364934,19.1918977 10.5524975,18.2132196 C8.72375127,17.1513859 6.96024465,15.8166311 5.5861366,14.4520256 C4.21202854,13.08742 2.86442406,11.3347548 1.79408767,9.51812367 C0.805300714,7.84221748 0.161060143,6.29637527 0.0265035678,5.28144989 C-0.0632008155,4.61620469 0.0937818552,3.87633262 0.481141692,3.14285714 C0.827726809,2.48614072 1.34148828,1.85501066 1.9714577,1.31343284 C2.00815494,1.28144989 2.04485219,1.24946695 2.08154944,1.2196162 C2.56472987,0.801705757 2.98470948,0.441364606 3.67787971,0.170575693 C3.92252803,0.0618336887 4.15086646,0.0106609808 4.37920489,0.0106609808 C4.5891947,0.0106609808 4.79918451,0.0554371002 5.0030581,0.147121535 L5.01325178,0.151385928 C5.1049949,0.194029851 5.2579001,0.277185501 5.29867482,0.300639659 C5.41896024,0.360341151 6.07135576,0.720682303 6.7930683,1.7249467 C7.02344546,2.04690832 7.3883792,2.58848614 7.65137615,3.05970149 C8.09582059,3.85287846 8.38735984,4.53731343 8.39959225,4.56716418 L8.4077472,4.58635394 L8.4648318,4.76332623 C8.65239551,5.26012793 8.54230377,5.7761194 8.16921509,6.14712154 C8.14678899,6.1684435 8.12232416,6.19616205 8.12232416,6.19616205 L8.09174312,6.22814499 L8.06931702,6.24520256 C8.05300714,6.25799574 8.0224261,6.28571429 8.00203874,6.30490405 C7.94495413,6.35607676 7.92864424,6.37100213 7.90825688,6.38592751 L7.89194699,6.39872068 C7.65341488,6.56289979 7.56778797,6.6119403 7.47604485,6.66311301 C7.41488277,6.69936034 7.34964322,6.73560768 7.21304791,6.82515991 L7.2069317,6.82942431 C6.97247706,6.97654584 6.74821611,7.07036247 6.51172273,7.1684435 C6.32619776,7.24520256 6.11416922,7.3347548 5.85932722,7.46481876 C5.49235474,7.65245203 5.47808359,8.18550107 5.55351682,8.36247335 C6.00815494,9.42004264 6.81345566,10.4904051 8.16513761,11.8336887 C9.35779817,13.0191898 10.5300714,13.7761194 11.5188583,14.3624733 C11.6391437,14.4328358 11.7573904,14.4690832 11.8817533,14.4690832 C12.2303772,14.4690832 12.5667686,14.1855011 12.7176351,13.9040512 C12.833843,13.6886994 12.941896,13.4605544 13.0377166,13.2622601 C13.1151886,13.1002132 13.1906218,12.9466951 13.2599388,12.8123667 L13.2619776,12.8102345 C13.4373089,12.4840085 13.5657492,12.2750533 13.6411825,12.1556503 C13.6962283,12.0703625 13.7492355,11.989339 13.8124363,11.9211087 C13.9633028,11.6993603 14.1997961,11.5117271 14.4525994,11.4200426 C14.5953109,11.3688699 14.7584098,11.3411514 14.9276249,11.3411514 C15.1457696,11.3411514 15.3537207,11.3859275 15.5147808,11.4690832 L15.9449541,11.6950959 L15.9449541,11.6950959 C15.9775739,11.7121535 16.0122324,11.7334755 16.0509684,11.7590618 C16.0978593,11.7889126 16.1671764,11.8336887 16.254842,11.891258 C16.4097859,11.9936034 16.6585117,12.1599147 16.9561672,12.3667377 C17.0050968,12.4008529 17.058104,12.4371002 17.1111111,12.4754797 L18.3017329,13.4029851 Z M14.4485219,12.5415778 C14.4159021,12.5820896 14.2670744,12.7974414 14.0244648,13.249467 C13.9633028,13.3667377 13.891947,13.5138593 13.8185525,13.6673774 C13.7186544,13.8763326 13.6044852,14.1108742 13.4801223,14.3454158 C13.204893,14.8592751 12.6034659,15.3795309 11.8797146,15.3795309 C11.6044852,15.3795309 11.3353721,15.3049041 11.0846075,15.1556503 C10.0489297,14.5415778 8.81957187,13.7462687 7.55963303,12.4946695 C6.12028542,11.0660981 5.25382263,9.90618337 4.75025484,8.73560768 C4.61977574,8.43283582 4.59938838,8.02771855 4.69520897,7.65245203 C4.81141692,7.19402985 5.08664628,6.8336887 5.46992864,6.63965885 C5.75535168,6.49466951 5.98165138,6.39872068 6.1814475,6.31556503 C6.39959225,6.2238806 6.57288481,6.15138593 6.74617737,6.04477612 C6.90316004,5.9424307 6.98063201,5.89765458 7.04994903,5.85927505 C7.12538226,5.81663113 7.19062181,5.7782516 7.38634047,5.64605544 C7.39653415,5.63539446 7.41284404,5.62260128 7.42915392,5.60767591 C7.46992864,5.57142857 7.49643221,5.54797441 7.51478084,5.53091684 C7.52497452,5.52025586 7.53924567,5.50533049 7.55351682,5.49040512 L7.55963303,5.48400853 C7.67584098,5.36886994 7.70234455,5.24307036 7.6432212,5.09168443 L7.63302752,5.06396588 L7.5861366,4.91684435 C7.53720693,4.80383795 7.27217125,4.19829424 6.89296636,3.52452026 C6.6911315,3.1641791 6.37512742,2.67377399 6.08970438,2.2771855 C5.4841998,1.43710021 4.94801223,1.14498934 4.91335372,1.12579957 L4.8950051,1.11513859 C4.83384302,1.08102345 4.71559633,1.01705757 4.65647299,0.989339019 C4.5606524,0.948827292 4.46890928,0.92750533 4.37716616,0.92750533 C4.26503568,0.92750533 4.14882773,0.957356077 4.01019368,1.01918977 L3.98980632,1.02771855 C3.42915392,1.24520256 3.09683996,1.53091684 2.63812436,1.92750533 C2.60142712,1.95948827 2.56472987,1.99147122 2.52803262,2.02345416 C1.40672783,2.98294243 0.76656473,4.21321962 0.892966361,5.15351812 C1.01121305,6.03624733 1.62691131,7.48614072 2.54026504,9.03624733 C3.57186544,10.7867804 4.86850153,12.4733475 6.18960245,13.7867804 C7.5127421,15.1002132 9.21304791,16.3880597 10.9785933,17.4136461 C12.5443425,18.3240938 14.0142712,18.9360341 14.9072375,19.0533049 C15.0173293,19.0682303 15.1294597,19.0746269 15.2375127,19.0746269 C16.0856269,19.0746269 16.9235474,18.6311301 17.9571865,17.6353945 C18.2833843,17.3198294 18.7461774,16.771855 18.9745158,16.2601279 C19.1070336,15.9616205 19.1457696,15.5671642 19.0540265,15.4307036 L18.9745158,15.3113006 L18.9745158,15.3091684 L18.9663609,15.2963753 C18.9296636,15.2515991 18.8603466,15.1641791 18.8012232,15.0916844 C18.7991845,15.0895522 18.579001,14.8251599 18.0244648,14.347548 C17.4984709,13.8933902 16.90316,13.424307 16.470948,13.1279318 C15.9816514,12.7910448 15.6146789,12.5522388 15.5372069,12.5031983 L15.1213048,12.2857143 C15.1009174,12.2750533 15.0295617,12.2537313 14.9255861,12.2537313 C14.8542304,12.2537313 14.7869521,12.2643923 14.7359837,12.2814499 C14.6360856,12.3176972 14.5443425,12.4093817 14.5137615,12.4626866 L14.4485219,12.5415778 Z" id="Shape"></path>
        </g>
    </g>
</svg>