<?xml version="1.0" encoding="UTF-8"?>
<svg width="25px" height="25px" viewBox="0 0 25 25" version="1.1" xmlns="http://www.w3.org/2000/svg" xmlns:xlink="http://www.w3.org/1999/xlink">
    <!-- Generator: Sketch 44.1 (41455) - http://www.bohemiancoding.com/sketch -->
    <title>Instagram</title>
    <desc>Created with Sketch.</desc>
    <defs></defs>
    <g id="Page-1" stroke="none" stroke-width="1" fill="none" fill-rule="evenodd">
        <path d="M13,3.163 C16.204,3.163 16.584,3.175 17.85,3.233 C21.102,3.381 22.621,4.924 22.769,8.152 C22.827,9.417 22.838,9.797 22.838,13.001 C22.838,16.206 22.826,16.585 22.769,17.85 C22.62,21.075 21.105,22.621 17.85,22.769 C16.584,22.827 16.206,22.839 13,22.839 C9.796,22.839 9.416,22.827 8.151,22.769 C4.891,22.62 3.38,21.07 3.232,17.849 C3.174,16.584 3.162,16.205 3.162,13 C3.162,9.796 3.175,9.417 3.232,8.151 C3.381,4.924 4.896,3.38 8.151,3.232 C9.417,3.175 9.796,3.163 13,3.163 L13,3.163 Z M13,1 C9.741,1 9.333,1.014 8.053,1.072 C3.695,1.272 1.273,3.69 1.073,8.052 C1.014,9.333 1,9.741 1,13 C1,16.259 1.014,16.668 1.072,17.948 C1.272,22.306 3.69,24.728 8.052,24.928 C9.333,24.986 9.741,25 13,25 C16.259,25 16.668,24.986 17.948,24.928 C22.302,24.728 24.73,22.31 24.927,17.948 C24.986,16.668 25,16.259 25,13 C25,9.741 24.986,9.333 24.928,8.053 C24.732,3.699 22.311,1.273 17.949,1.073 C16.668,1.014 16.259,1 13,1 Z M13,6.838 C9.597,6.838 6.838,9.597 6.838,13 C6.838,16.403 9.597,19.163 13,19.163 C16.403,19.163 19.162,16.404 19.162,13 C19.162,9.597 16.403,6.838 13,6.838 Z M13,17 C10.791,17 9,15.21 9,13 C9,10.791 10.791,9 13,9 C15.209,9 17,10.791 17,13 C17,15.21 15.209,17 13,17 Z M19.406,5.155 C18.61,5.155 17.965,5.8 17.965,6.595 C17.965,7.39 18.61,8.035 19.406,8.035 C20.201,8.035 20.845,7.39 20.845,6.595 C20.845,5.8 20.201,5.155 19.406,5.155 Z" id="Shape" fill="#FFFFFF" fill-rule="nonzero"></path>
    </g>
</svg>