<?xml version="1.0" encoding="UTF-8"?>
<svg width="30px" height="30px" viewBox="0 0 30 30" version="1.1" xmlns="http://www.w3.org/2000/svg" xmlns:xlink="http://www.w3.org/1999/xlink">
    <!-- Generator: Sketch 44.1 (41455) - http://www.bohemiancoding.com/sketch -->
    <title>Phone</title>
    <desc>Created with Sketch.</desc>
    <defs></defs>
    <g id="phone">
        <path d="M24.1114859,30.0000404 C22.8632921,30.0000404 21.3557726,29.6872351 19.6979049,29.0616247 C16.0633098,27.6913359 12.1088461,24.9830479 8.56304732,21.4372492 C5.0162395,17.8904413 2.30795154,13.9349686 0.936653724,10.3003735 C-0.309521996,6.9957375 -0.312549143,4.28341334 0.92959038,3.04228287 C1.10819208,2.86368117 1.28982093,2.67196183 1.47750408,2.47418819 C2.61066629,1.28250112 3.89114968,-0.0585252171 5.58837038,0.00201773288 C6.75785836,0.0504520928 7.89102058,0.776967492 9.05142712,2.22091685 C12.4801762,6.48515862 10.9343129,8.00478667 9.14526869,9.76658651 L8.8294363,10.0793918 C8.53681204,10.372016 7.9838531,11.727169 13.1279857,16.8713017 C14.8070436,18.5503595 16.2388843,19.7793814 17.3831461,20.5230506 C18.1036072,20.9912494 19.392163,21.6996019 19.9209047,21.1708602 L20.2387552,20.8499825 C21.998537,19.0649746 23.518165,17.5241565 27.7793796,20.9498784 C29.223329,22.110285 29.9488353,23.2424381 29.9972697,24.4139442 C30.0668941,26.1101559 28.7157773,27.3936664 27.5230811,28.5258196 C27.3263166,28.7135027 27.1345972,28.8951315 26.9559955,29.0727242 C26.3394665,29.6902623 25.3536254,30.0000404 24.1114859,30.0000404 Z M5.46728448,1.0090488 C4.26147073,1.0090488 3.17270668,2.15532865 2.20906472,3.16942306 C2.01532728,3.373251 1.82764414,3.57102463 1.64298814,3.75568063 C0.717690055,4.67996967 0.811531628,7.10875101 1.88112374,9.94518821 C3.20297815,13.4486069 5.82953313,17.2769395 9.27745413,20.7248605 C12.7243661,24.1707634 16.5506805,26.7973183 20.0551083,28.1181637 C22.8915455,29.1897739 25.3203268,29.2805883 26.2436068,28.3573083 C26.4282628,28.1726523 26.6260364,27.9849692 26.8298644,27.7922408 C27.8661579,26.8074088 29.0417001,25.6914004 28.9902386,24.4532971 C28.9549219,23.6026687 28.3353657,22.6874611 27.1487239,21.7339096 C23.5978799,18.8783005 22.6049755,19.8863406 20.9582073,21.556317 L20.6353115,21.8822398 C19.8482532,22.6703072 18.5697879,22.4957417 16.8342233,21.3676248 C15.6304277,20.5846026 14.1430892,19.3111826 12.415597,17.5826814 C8.14631001,13.3144034 6.78106649,10.7019751 8.11704759,9.36296684 L8.43893427,9.04511636 C10.1129468,7.39834812 11.1230051,6.40443469 8.26638687,2.85157258 C7.31081731,1.66593981 6.39661876,1.04638362 5.54599031,1.01005785 C5.51975504,1.0090488 5.49351976,1.0090488 5.46728448,1.0090488 Z" id="Shape"></path>
    </g>
</svg>