<?xml version="1.0" encoding="UTF-8"?>
<svg width="400px" height="400px" viewBox="0 0 400 400" version="1.1" xmlns="http://www.w3.org/2000/svg" xmlns:xlink="http://www.w3.org/1999/xlink">
    <!-- Generator: Sketch 44.1 (41455) - http://www.bohemiancoding.com/sketch -->
    <title>Untitled</title>
    <desc>Created with Sketch.</desc>
    <defs></defs>
    <g id="vk">
        <rect id="Rectangle" x="7.5" y="7.5" width="385" height="385" rx="85"></rect>
        <path d="M321.166667,277.5 L285.6,277.5 C265.516667,277.5 262.116667,266.05 245.583333,249.516667 C230.633333,234.566667 222.333333,246.033333 222.683333,267.316667 C222.783333,272.966667 220,277.5 213.25,277.5 C192.183333,277.5 161.916667,280.466667 131.283333,247.4 C99.9,213.516667 67,145.55 67,138.85 C67,134.9 70.2666667,133.116667 75.7333333,133.116667 L111.9,133.116667 C121.466667,133.116667 122.283333,137.85 124.95,143.933333 C136.066667,169.283333 162.7,220.166667 169.783333,191.766667 C173.85,175.466667 175.516667,137.683333 158.066667,134.433333 C148.166667,132.6 165.6,122 190.866667,122 C197.15,122 203.966667,122.683333 210.95,124.283333 C223.766667,127.266667 223.8,133 223.633333,141.383333 C222.983333,173.1 219.15,194.45 227.516667,199.833333 C235.5,205 256.5,171.216667 267.566667,145.15 C270.616667,137.933333 271.216667,133.116667 279.8,133.116667 L324.033333,133.116667 C347.2,133.116667 321,166.4 300.983333,192.4 C284.85,213.316667 285.716667,213.733333 304.466667,231.133333 C317.85,243.533333 333.633333,260.466667 333.633333,270.066667 C333.666667,274.6 330.133333,277.5 321.166667,277.5 L321.166667,277.5 Z" id="Shape-path"></path>
    </g>
</svg>