<?xml version="1.0" encoding="UTF-8"?>
<svg width="32px" height="23px" viewBox="0 0 32 23" version="1.1" xmlns="http://www.w3.org/2000/svg" xmlns:xlink="http://www.w3.org/1999/xlink">
    <!-- Generator: Sketch 44.1 (41455) - http://www.bohemiancoding.com/sketch -->
    <title>Email</title>
    <desc>Created with Sketch.</desc>
    <defs></defs>
    <g id="email">
        <path d="M28.512,22.529 L2.5,22.529 C1.122,22.529 0,21.408 0,20.029 L0,2.982 C0,1.603 1.122,0.482 2.5,0.482 L28.512,0.482 C29.89,0.482 31.012,1.603 31.012,2.982 L31.012,20.029 C31.012,21.408 29.89,22.529 28.512,22.529 Z M2.5,1.482 C1.673,1.482 1,2.155 1,2.982 L1,20.029 C1,20.856 1.673,21.529 2.5,21.529 L28.512,21.529 C29.339,21.529 30.012,20.856 30.012,20.029 L30.012,2.982 C30.012,2.155 29.339,1.482 28.512,1.482 L2.5,1.482 Z" id="Shape"></path>
        <path d="M15.506,14.018 C14.841,14.018 14.176,13.797 13.67,13.356 L0.891,2.219 C0.683,2.037 0.661,1.722 0.843,1.514 C1.025,1.304 1.341,1.284 1.549,1.465 L14.327,12.602 C14.967,13.159 16.047,13.158 16.685,12.602 L29.46,1.466 C29.667,1.283 29.982,1.304 30.166,1.515 C30.348,1.723 30.326,2.038 30.118,2.22 L17.342,13.355 C16.836,13.797 16.171,14.018 15.506,14.018 Z" id="Shape"></path>
    </g>
</svg>