<svg xmlns="http://www.w3.org/2000/svg"><symbol id="icon-close" viewBox="0 0 102 102"><title>Close</title><path d="M1.999 1.999L100 100M100.001 1.999L2 100"/></symbol><symbol id="icon-email" viewBox="0 0 32 23"><title>Email</title><path d="M28.512 22.529H2.5a2.503 2.503 0 0 1-2.5-2.5V2.982c0-1.379 1.122-2.5 2.5-2.5h26.012c1.378 0 2.5 1.121 2.5 2.5v17.047c0 1.379-1.122 2.5-2.5 2.5zM2.5 1.482c-.827 0-1.5.673-1.5 1.5v17.047c0 .827.673 1.5 1.5 1.5h26.012c.827 0 1.5-.673 1.5-1.5V2.982c0-.827-.673-1.5-1.5-1.5H2.5z"/><path d="M15.506 14.018c-.665 0-1.33-.221-1.836-.662L.891 2.219a.5.5 0 1 1 .658-.754l12.778 11.137c.64.557 1.72.556 2.358 0L29.46 1.466a.497.497 0 0 1 .706.049.5.5 0 0 1-.048.705L17.342 13.355c-.506.442-1.171.663-1.836.663z"/></symbol><symbol id="icon-facebook" viewBox="0 0 400 400"><title>Facebook</title><path d="M266.333 117h-32.066c-10.25 0-17.934 4.2-17.934 14.817v18.516h50l-3.966 50h-46.034v133.334h-50V200.333H133v-50h33.333v-32.05c0-33.7 17.734-51.283 57.684-51.283h42.316v50z"/><rect x="7.5" y="7.5" width="385" height="385" rx="85"/></symbol><symbol id="icon-instagram" viewBox="0 0 400 400"><title>Instagram</title><rect x="7.5" y="7.5" width="385" height="385" rx="85"/><circle cx="200" cy="200" r="87.5"/><circle cx="320" cy="80" r="20"/></symbol><symbol id="icon-map" viewBox="0 0 39 55"><title>Map</title><path d="M19.557 12c-3.859 0-7 3.141-7 7s3.141 7 7 7 7-3.141 7-7-3.141-7-7-7zm0 12c-2.757 0-5-2.243-5-5s2.243-5 5-5 5 2.243 5 5-2.243 5-5 5z"/><path d="M32.94 5.617A19.052 19.052 0 0 0 19.38 0 19.05 19.05 0 0 0 5.82 5.617c-6.703 6.702-7.536 19.312-1.804 26.952L19.38 54.757 34.721 32.6c5.755-7.671 4.922-20.281-1.781-26.983zm.159 25.814L19.38 51.243 5.639 31.4C.44 24.468 1.185 13.08 7.235 7.031A17.063 17.063 0 0 1 19.38 2c4.588 0 8.901 1.787 12.146 5.031 6.05 6.049 6.795 17.437 1.573 24.4z"/></symbol><symbol id="icon-phone" viewBox="0 0 30 30"><title>Phone</title><path d="M24.111 30c-1.248 0-2.755-.313-4.413-.938-3.635-1.37-7.59-4.079-11.135-7.625C5.016 17.89 2.308 13.935.937 10.3-.31 6.996-.313 4.283.93 3.042c.178-.178.36-.37.548-.568C2.61 1.283 3.89-.059 5.588.002c1.17.048 2.303.775 3.463 2.219 3.43 4.264 1.883 5.784.094 7.546l-.316.312c-.292.293-.845 1.648 4.299 6.792 1.679 1.68 3.11 2.908 4.255 3.652.72.468 2.01 1.177 2.538.648l.318-.321c1.76-1.785 3.28-3.326 7.54.1 1.444 1.16 2.17 2.292 2.218 3.464.07 1.696-1.281 2.98-2.474 4.112-.197.188-.388.37-.567.547-.617.617-1.602.927-2.845.927zM5.467 1.009c-1.206 0-2.294 1.146-3.258 2.16-.194.204-.381.402-.566.587-.925.924-.831 3.353.238 6.19 1.322 3.503 3.949 7.33 7.396 10.779 3.447 3.446 7.274 6.072 10.778 7.393 2.837 1.072 5.265 1.163 6.189.24.184-.185.382-.373.586-.566 1.036-.985 2.212-2.1 2.16-3.339-.035-.85-.655-1.766-1.841-2.72-3.551-2.855-4.544-1.847-6.19-.177l-.324.326c-.787.788-2.065.614-3.8-.514-1.205-.783-2.692-2.057-4.42-3.785-4.269-4.269-5.634-6.881-4.298-8.22l.322-.318c1.674-1.647 2.684-2.64-.173-6.193-.955-1.186-1.87-1.806-2.72-1.842l-.079-.001z"/></symbol><symbol id="icon-vk" viewBox="0 0 400 400"><title>Untitled</title><rect x="7.5" y="7.5" width="385" height="385" rx="85"/><path d="M321.167 277.5H285.6c-20.083 0-23.483-11.45-40.017-27.983-14.95-14.95-23.25-3.484-22.9 17.8.1 5.65-2.683 10.183-9.433 10.183-21.067 0-51.333 2.967-81.967-30.1C99.9 213.517 67 145.55 67 138.85c0-3.95 3.267-5.733 8.733-5.733H111.9c9.567 0 10.383 4.733 13.05 10.816 11.117 25.35 37.75 76.234 44.833 47.834 4.067-16.3 5.734-54.084-11.716-57.334-9.9-1.833 7.533-12.433 32.8-12.433 6.283 0 13.1.683 20.083 2.283 12.817 2.984 12.85 8.717 12.683 17.1-.65 31.717-4.483 53.067 3.884 58.45 7.983 5.167 28.983-28.616 40.05-54.683 3.05-7.217 3.65-12.033 12.233-12.033h44.233c23.167 0-3.033 33.283-23.05 59.283-16.133 20.917-15.266 21.333 3.484 38.733 13.383 12.4 29.166 29.334 29.166 38.934.034 4.533-3.5 7.433-12.466 7.433z"/></symbol></svg>