<svg xmlns="http://www.w3.org/2000/svg"><symbol id="icon-facebook" viewBox="0 0 26 26"><title>Facebook</title><path d="M20 1H6a5 5 0 0 0-5 5v14a5 5 0 0 0 5 5h14a5 5 0 0 0 5-5V6a5 5 0 0 0-5-5zm-3 7h-1.924C14.461 8 14 8.252 14 8.889V10h3l-.238 3H14v8h-3v-8H9v-3h2V8.077C11 6.055 12.064 5 14.461 5H17v3z" stroke="#FFF" fill="none" fill-rule="evenodd"/></symbol><symbol id="icon-instagram" viewBox="0 0 25 25"><title>Instagram</title><path d="M13 3.163c3.204 0 3.584.012 4.85.07 3.252.148 4.771 1.691 4.919 4.919.058 1.265.069 1.645.069 4.849 0 3.205-.012 3.584-.069 4.849-.149 3.225-1.664 4.771-4.919 4.919-1.266.058-1.644.07-4.85.07-3.204 0-3.584-.012-4.849-.07-3.26-.149-4.771-1.699-4.919-4.92-.058-1.265-.07-1.644-.07-4.849 0-3.204.013-3.583.07-4.849.149-3.227 1.664-4.771 4.919-4.919 1.266-.057 1.645-.069 4.849-.069zM13 1c-3.259 0-3.667.014-4.947.072-4.358.2-6.78 2.618-6.98 6.98C1.014 9.333 1 9.741 1 13c0 3.259.014 3.668.072 4.948.2 4.358 2.618 6.78 6.98 6.98C9.333 24.986 9.741 25 13 25c3.259 0 3.668-.014 4.948-.072 4.354-.2 6.782-2.618 6.979-6.98.059-1.28.073-1.689.073-4.948 0-3.259-.014-3.667-.072-4.947-.196-4.354-2.617-6.78-6.979-6.98C16.668 1.014 16.259 1 13 1zm0 5.838a6.162 6.162 0 1 0 0 12.324 6.162 6.162 0 0 0 0-12.324zM13 17a4 4 0 1 1 0-8 4 4 0 0 1 0 8zm6.406-11.845a1.44 1.44 0 1 0 0 2.881 1.44 1.44 0 0 0 0-2.881z" fill="#FFF" fill-rule="nonzero"/></symbol><symbol id="icon-phone" viewBox="0 0 20 20"><title>Phone</title><path d="M18.302 13.403c.096.079.19.16.281.239.612.529.858.823.883.855l.106.13.075.094c.013.017.025.03.03.04.017.022.031.045.044.066l.13.199v.019c.257.537.078 1.245-.083 1.603-.284.631-.814 1.273-1.218 1.661-.811.783-1.922 1.682-3.312 1.682a3.42 3.42 0 0 1-.44-.03c-1.014-.132-2.562-.77-4.246-1.748-1.828-1.062-3.592-2.396-4.966-3.761-1.374-1.365-2.722-3.117-3.792-4.934C.805 7.842.161 6.296.027 5.281c-.09-.665.067-1.405.454-2.138a6.396 6.396 0 0 1 1.6-1.923C2.566.802 2.986.44 3.679.17a1.7 1.7 0 0 1 .701-.16c.21 0 .42.045.624.137l.01.004c.092.043.245.126.286.15.12.06.772.42 1.494 1.424.23.322.595.863.858 1.335.445.793.736 1.477.749 1.507l.008.02.057.176a1.27 1.27 0 0 1-.296 1.384c-.022.021-.047.05-.047.05l-.03.031-.023.017c-.016.013-.047.04-.067.06-.057.051-.073.066-.094.08l-.016.014a4.491 4.491 0 0 1-.416.264c-.061.036-.126.073-.263.162l-.006.004c-.235.148-.459.241-.695.34a8.553 8.553 0 0 0-.653.296c-.367.187-.38.72-.305.897.454 1.058 1.26 2.128 2.611 3.472 1.193 1.185 2.365 1.942 3.354 2.528.12.07.238.107.363.107.348 0 .685-.283.836-.565.116-.215.224-.443.32-.642.077-.162.153-.315.222-.45l.002-.002c.175-.326.304-.535.38-.654.054-.086.107-.167.17-.235.151-.222.388-.41.64-.501.143-.051.306-.079.476-.079.218 0 .426.045.587.128l.43.226c.033.017.067.038.106.064l.204.132c.155.103.404.269.701.476l.155.108 1.19.928zm-3.853-.861c-.033.04-.182.255-.425.707a14.28 14.28 0 0 0-.205.418c-.1.21-.215.444-.339.678-.275.514-.877 1.035-1.6 1.035-.276 0-.545-.075-.795-.224-1.036-.614-2.265-1.41-3.525-2.661-1.44-1.429-2.306-2.589-2.81-3.76-.13-.302-.15-.707-.055-1.083.116-.458.392-.818.775-1.012.285-.145.512-.241.711-.324.219-.092.392-.165.565-.271.157-.103.235-.147.304-.186.075-.042.14-.08.336-.213l.043-.038.086-.077.039-.04.006-.007a.333.333 0 0 0 .083-.392l-.01-.028-.047-.147a15.911 15.911 0 0 0-.693-1.392c-.202-.36-.518-.851-.803-1.248-.606-.84-1.142-1.132-1.177-1.151l-.018-.01a5.15 5.15 0 0 0-.239-.127.712.712 0 0 0-.279-.061.895.895 0 0 0-.367.091l-.02.009c-.56.217-.893.503-1.352.9l-.11.095c-1.121.96-1.761 2.19-1.635 3.13.118.883.734 2.333 1.647 3.883 1.032 1.75 2.329 3.437 3.65 4.75 1.323 1.314 3.023 2.602 4.789 3.628 1.565.91 3.035 1.522 3.928 1.64.11.014.222.02.33.02.849 0 1.687-.443 2.72-1.439.326-.315.79-.863 1.018-1.375.132-.298.17-.693.079-.83l-.08-.119v-.002l-.008-.013-.165-.204c-.002-.002-.222-.267-.777-.744a19.573 19.573 0 0 0-1.553-1.22c-.49-.337-.856-.576-.934-.625l-.416-.217a.5.5 0 0 0-.195-.032.618.618 0 0 0-.19.027.486.486 0 0 0-.222.182l-.065.079z" fill-rule="nonzero" fill="#FFF"/></symbol><symbol id="icon-vk" viewBox="0 0 26 26"><title>Vkontakte</title><path d="M20 1H6a5 5 0 0 0-5 5v14a5 5 0 0 0 5 5h14a5 5 0 0 0 5-5V6a5 5 0 0 0-5-5zm.25 16.996h-2.134c-1.205 0-1.409-.687-2.401-1.679-.897-.897-1.395-.209-1.374 1.068.006.339-.161.611-.566.611-1.264 0-3.08.178-4.918-1.806C6.974 14.157 5 10.079 5 9.677c0-.237.196-.344.524-.344h2.17c.574 0 .623.284.783.649.667 1.521 2.265 4.574 2.69 2.87.244-.978.344-3.245-.703-3.44-.594-.11.452-.746 1.968-.746.377 0 .786.041 1.205.137.769.179.771.523.761 1.026-.039 1.903-.269 3.184.233 3.507.479.31 1.739-1.717 2.403-3.281.183-.433.219-.722.734-.722h2.654c1.39 0-.182 1.997-1.383 3.557-.968 1.255-.916 1.28.209 2.324.803.744 1.75 1.76 1.75 2.336.002.272-.21.446-.748.446z" stroke="#FFF" fill="none" fill-rule="evenodd"/></symbol></svg>